solid 
 facet normal  1.000000e+00  0.000000e+00  0.000000e+00
   outer loop
     vertex  1.146182e+01  3.792513e+01  1.500000e+01
     vertex  1.146182e+01  2.337112e+01  2.000000e+01
     vertex  1.146182e+01  2.337112e+01  1.500000e+01
   endloop
 endfacet
 facet normal  1.000000e+00  0.000000e+00 -0.000000e+00
   outer loop
     vertex  1.146182e+01  3.792513e+01  1.500000e+01
     vertex  1.146182e+01  3.792513e+01  2.000000e+01
     vertex  1.146182e+01  2.337112e+01  2.000000e+01
   endloop
 endfacet
 facet normal -9.927089e-01  1.205367e-01  2.609786e-19
   outer loop
     vertex  1.810610e+01  2.256436e+01  1.500000e+01
     vertex  1.820406e+01  2.337112e+01  2.000000e+01
     vertex  1.820406e+01  2.337112e+01  1.500000e+01
   endloop
 endfacet
 facet normal -9.927089e-01  1.205367e-01  0.000000e+00
   outer loop
     vertex  1.810610e+01  2.256436e+01  1.500000e+01
     vertex  1.810610e+01  2.256436e+01  2.000000e+01
     vertex  1.820406e+01  2.337112e+01  2.000000e+01
   endloop
 endfacet
 facet normal -9.350162e-01  3.546049e-01  0.000000e+00
   outer loop
     vertex  1.781792e+01  2.180448e+01  1.500000e+01
     vertex  1.781792e+01  2.180448e+01  2.000000e+01
     vertex  1.810610e+01  2.256436e+01  2.000000e+01
   endloop
 endfacet
 facet normal -9.350162e-01  3.546049e-01  3.162681e-18
   outer loop
     vertex  1.781792e+01  2.180448e+01  1.500000e+01
     vertex  1.810610e+01  2.256436e+01  2.000000e+01
     vertex  1.810610e+01  2.256436e+01  1.500000e+01
   endloop
 endfacet
 facet normal -8.229839e-01  5.680647e-01  0.000000e+00
   outer loop
     vertex  1.735626e+01  2.113565e+01  1.500000e+01
     vertex  1.735626e+01  2.113565e+01  2.000000e+01
     vertex  1.781792e+01  2.180448e+01  2.000000e+01
   endloop
 endfacet
 facet normal -8.229839e-01  5.680647e-01  3.169702e-18
   outer loop
     vertex  1.735626e+01  2.113565e+01  1.500000e+01
     vertex  1.781792e+01  2.180448e+01  2.000000e+01
     vertex  1.781792e+01  2.180448e+01  1.500000e+01
   endloop
 endfacet
 facet normal -6.631227e-01  7.485107e-01  0.000000e+00
   outer loop
     vertex  1.674795e+01  2.059674e+01  1.500000e+01
     vertex  1.674795e+01  2.059674e+01  2.000000e+01
     vertex  1.735626e+01  2.113565e+01  2.000000e+01
   endloop
 endfacet
 facet normal -6.631227e-01  7.485107e-01 -3.311659e-18
   outer loop
     vertex  1.674795e+01  2.059674e+01  1.500000e+01
     vertex  1.735626e+01  2.113565e+01  2.000000e+01
     vertex  1.735626e+01  2.113565e+01  1.500000e+01
   endloop
 endfacet
 facet normal -4.647232e-01  8.854560e-01  0.000000e+00
   outer loop
     vertex  1.602836e+01  2.021907e+01  1.500000e+01
     vertex  1.602836e+01  2.021907e+01  2.000000e+01
     vertex  1.674795e+01  2.059674e+01  2.000000e+01
   endloop
 endfacet
 facet normal -4.647232e-01  8.854560e-01  5.012537e-18
   outer loop
     vertex  1.602836e+01  2.021907e+01  1.500000e+01
     vertex  1.674795e+01  2.059674e+01  2.000000e+01
     vertex  1.674795e+01  2.059674e+01  1.500000e+01
   endloop
 endfacet
 facet normal -2.393157e-01  9.709418e-01  0.000000e+00
   outer loop
     vertex  1.523928e+01  2.002458e+01  1.500000e+01
     vertex  1.523928e+01  2.002458e+01  2.000000e+01
     vertex  1.602836e+01  2.021907e+01  2.000000e+01
   endloop
 endfacet
 facet normal -2.393157e-01  9.709418e-01 -6.612097e-19
   outer loop
     vertex  1.523928e+01  2.002458e+01  1.500000e+01
     vertex  1.602836e+01  2.021907e+01  2.000000e+01
     vertex  1.602836e+01  2.021907e+01  1.500000e+01
   endloop
 endfacet
 facet normal  0.000000e+00  1.000000e+00  0.000000e+00
   outer loop
     vertex  1.442660e+01  2.002458e+01  1.500000e+01
     vertex  1.442660e+01  2.002458e+01  2.000000e+01
     vertex  1.523928e+01  2.002458e+01  2.000000e+01
   endloop
 endfacet
 facet normal  0.000000e+00  1.000000e+00  0.000000e+00
   outer loop
     vertex  1.442660e+01  2.002458e+01  1.500000e+01
     vertex  1.523928e+01  2.002458e+01  2.000000e+01
     vertex  1.523928e+01  2.002458e+01  1.500000e+01
   endloop
 endfacet
 facet normal  2.393157e-01  9.709418e-01 -0.000000e+00
   outer loop
     vertex  1.363752e+01  2.021907e+01  1.500000e+01
     vertex  1.363752e+01  2.021907e+01  2.000000e+01
     vertex  1.442660e+01  2.002458e+01  2.000000e+01
   endloop
 endfacet
 facet normal  2.393157e-01  9.709418e-01 -3.105275e-18
   outer loop
     vertex  1.363752e+01  2.021907e+01  1.500000e+01
     vertex  1.442660e+01  2.002458e+01  2.000000e+01
     vertex  1.442660e+01  2.002458e+01  1.500000e+01
   endloop
 endfacet
 facet normal  4.647232e-01  8.854560e-01 -0.000000e+00
   outer loop
     vertex  1.291792e+01  2.059674e+01  1.500000e+01
     vertex  1.291792e+01  2.059674e+01  2.000000e+01
     vertex  1.363752e+01  2.021907e+01  2.000000e+01
   endloop
 endfacet
 facet normal  4.647232e-01  8.854560e-01 -6.608621e-18
   outer loop
     vertex  1.291792e+01  2.059674e+01  1.500000e+01
     vertex  1.363752e+01  2.021907e+01  2.000000e+01
     vertex  1.363752e+01  2.021907e+01  1.500000e+01
   endloop
 endfacet
 facet normal  6.631227e-01  7.485107e-01 -0.000000e+00
   outer loop
     vertex  1.230962e+01  2.113565e+01  1.500000e+01
     vertex  1.230962e+01  2.113565e+01  2.000000e+01
     vertex  1.291792e+01  2.059674e+01  2.000000e+01
   endloop
 endfacet
 facet normal  6.631227e-01  7.485107e-01  3.311659e-18
   outer loop
     vertex  1.230962e+01  2.113565e+01  1.500000e+01
     vertex  1.291792e+01  2.059674e+01  2.000000e+01
     vertex  1.291792e+01  2.059674e+01  1.500000e+01
   endloop
 endfacet
 facet normal  8.229839e-01  5.680647e-01 -0.000000e+00
   outer loop
     vertex  1.184796e+01  2.180448e+01  1.500000e+01
     vertex  1.184796e+01  2.180448e+01  2.000000e+01
     vertex  1.230962e+01  2.113565e+01  2.000000e+01
   endloop
 endfacet
 facet normal  9.350162e-01  3.546049e-01 -0.000000e+00
   outer loop
     vertex  1.184796e+01  2.180448e+01  1.500000e+01
     vertex  1.155978e+01  2.256436e+01  2.000000e+01
     vertex  1.184796e+01  2.180448e+01  2.000000e+01
   endloop
 endfacet
 facet normal  8.229839e-01  5.680647e-01 -3.169702e-18
   outer loop
     vertex  1.184796e+01  2.180448e+01  1.500000e+01
     vertex  1.230962e+01  2.113565e+01  2.000000e+01
     vertex  1.230962e+01  2.113565e+01  1.500000e+01
   endloop
 endfacet
 facet normal  9.350162e-01  3.546049e-01 -0.000000e+00
   outer loop
     vertex  1.155978e+01  2.256436e+01  1.500000e+01
     vertex  1.155978e+01  2.256436e+01  2.000000e+01
     vertex  1.184796e+01  2.180448e+01  1.500000e+01
   endloop
 endfacet
 facet normal  9.927089e-01  1.205367e-01 -0.000000e+00
   outer loop
     vertex  1.146182e+01  2.337112e+01  1.500000e+01
     vertex  1.146182e+01  2.337112e+01  2.000000e+01
     vertex  1.155978e+01  2.256436e+01  2.000000e+01
   endloop
 endfacet
 facet normal  9.927089e-01  1.205367e-01  9.806091e-19
   outer loop
     vertex  1.146182e+01  2.337112e+01  1.500000e+01
     vertex  1.155978e+01  2.256436e+01  2.000000e+01
     vertex  1.155978e+01  2.256436e+01  1.500000e+01
   endloop
 endfacet
 facet normal -1.000000e+00  0.000000e+00  0.000000e+00
   outer loop
     vertex  1.820406e+01  2.337112e+01  1.500000e+01
     vertex  1.820406e+01  3.792513e+01  2.000000e+01
     vertex  1.820406e+01  3.792513e+01  1.500000e+01
   endloop
 endfacet
 facet normal -1.000000e+00  0.000000e+00  0.000000e+00
   outer loop
     vertex  1.820406e+01  2.337112e+01  1.500000e+01
     vertex  1.820406e+01  2.337112e+01  2.000000e+01
     vertex  1.820406e+01  3.792513e+01  2.000000e+01
   endloop
 endfacet
 facet normal  9.927089e-01 -1.205367e-01  9.987512e-19
   outer loop
     vertex  1.155978e+01  3.873189e+01  1.500000e+01
     vertex  1.146182e+01  3.792513e+01  2.000000e+01
     vertex  1.146182e+01  3.792513e+01  1.500000e+01
   endloop
 endfacet
 facet normal  9.927089e-01 -1.205367e-01  0.000000e+00
   outer loop
     vertex  1.155978e+01  3.873189e+01  1.500000e+01
     vertex  1.155978e+01  3.873189e+01  2.000000e+01
     vertex  1.146182e+01  3.792513e+01  2.000000e+01
   endloop
 endfacet
 facet normal  9.350162e-01 -3.546049e-01  0.000000e+00
   outer loop
     vertex  1.184796e+01  3.949177e+01  1.500000e+01
     vertex  1.184796e+01  3.949177e+01  2.000000e+01
     vertex  1.155978e+01  3.873189e+01  2.000000e+01
   endloop
 endfacet
 facet normal  9.350162e-01 -3.546049e-01 -2.898989e-18
   outer loop
     vertex  1.184796e+01  3.949177e+01  1.500000e+01
     vertex  1.155978e+01  3.873189e+01  2.000000e+01
     vertex  1.155978e+01  3.873189e+01  1.500000e+01
   endloop
 endfacet
 facet normal  8.229839e-01 -5.680647e-01  0.000000e+00
   outer loop
     vertex  1.230962e+01  4.016060e+01  1.500000e+01
     vertex  1.230962e+01  4.016060e+01  2.000000e+01
     vertex  1.184796e+01  3.949177e+01  2.000000e+01
   endloop
 endfacet
 facet normal  8.229839e-01 -5.680647e-01  5.132375e-18
   outer loop
     vertex  1.230962e+01  4.016060e+01  1.500000e+01
     vertex  1.184796e+01  3.949177e+01  2.000000e+01
     vertex  1.184796e+01  3.949177e+01  1.500000e+01
   endloop
 endfacet
 facet normal  6.631227e-01 -7.485107e-01  0.000000e+00
   outer loop
     vertex  1.291792e+01  4.069951e+01  1.500000e+01
     vertex  1.291792e+01  4.069951e+01  2.000000e+01
     vertex  1.230962e+01  4.016060e+01  2.000000e+01
   endloop
 endfacet
 facet normal  6.631227e-01 -7.485107e-01 -2.376646e-18
   outer loop
     vertex  1.291792e+01  4.069951e+01  1.500000e+01
     vertex  1.230962e+01  4.016060e+01  2.000000e+01
     vertex  1.230962e+01  4.016060e+01  1.500000e+01
   endloop
 endfacet
 facet normal  4.647232e-01 -8.854560e-01  0.000000e+00
   outer loop
     vertex  1.363752e+01  4.107718e+01  1.500000e+01
     vertex  1.363752e+01  4.107718e+01  2.000000e+01
     vertex  1.291792e+01  4.069951e+01  2.000000e+01
   endloop
 endfacet
 facet normal  4.647232e-01 -8.854560e-01  5.439288e-18
   outer loop
     vertex  1.363752e+01  4.107718e+01  1.500000e+01
     vertex  1.291792e+01  4.069951e+01  2.000000e+01
     vertex  1.291792e+01  4.069951e+01  1.500000e+01
   endloop
 endfacet
 facet normal  2.393157e-01 -9.709418e-01  0.000000e+00
   outer loop
     vertex  1.442660e+01  4.127167e+01  1.500000e+01
     vertex  1.442660e+01  4.127167e+01  2.000000e+01
     vertex  1.363752e+01  4.107718e+01  2.000000e+01
   endloop
 endfacet
 facet normal  2.393157e-01 -9.709418e-01  3.114102e-18
   outer loop
     vertex  1.442660e+01  4.127167e+01  1.500000e+01
     vertex  1.363752e+01  4.107718e+01  2.000000e+01
     vertex  1.363752e+01  4.107718e+01  1.500000e+01
   endloop
 endfacet
 facet normal  8.743120e-15 -1.000000e+00  0.000000e+00
   outer loop
     vertex  1.523928e+01  4.127167e+01  1.500000e+01
     vertex  1.523928e+01  4.127167e+01  2.000000e+01
     vertex  1.442660e+01  4.127167e+01  2.000000e+01
   endloop
 endfacet
 facet normal  8.743120e-15 -1.000000e+00  0.000000e+00
   outer loop
     vertex  1.523928e+01  4.127167e+01  1.500000e+01
     vertex  1.442660e+01  4.127167e+01  2.000000e+01
     vertex  1.442660e+01  4.127167e+01  1.500000e+01
   endloop
 endfacet
 facet normal -2.393157e-01 -9.709418e-01  0.000000e+00
   outer loop
     vertex  1.602836e+01  4.107718e+01  1.500000e+01
     vertex  1.602836e+01  4.107718e+01  2.000000e+01
     vertex  1.523928e+01  4.127167e+01  2.000000e+01
   endloop
 endfacet
 facet normal -2.393157e-01 -9.709418e-01 -3.114102e-18
   outer loop
     vertex  1.602836e+01  4.107718e+01  1.500000e+01
     vertex  1.523928e+01  4.127167e+01  2.000000e+01
     vertex  1.523928e+01  4.127167e+01  1.500000e+01
   endloop
 endfacet
 facet normal -4.647232e-01 -8.854560e-01  0.000000e+00
   outer loop
     vertex  1.674795e+01  4.069951e+01  1.500000e+01
     vertex  1.674795e+01  4.069951e+01  2.000000e+01
     vertex  1.602836e+01  4.107718e+01  2.000000e+01
   endloop
 endfacet
 facet normal -4.647232e-01 -8.854560e-01 -6.608621e-18
   outer loop
     vertex  1.674795e+01  4.069951e+01  1.500000e+01
     vertex  1.602836e+01  4.107718e+01  2.000000e+01
     vertex  1.602836e+01  4.107718e+01  1.500000e+01
   endloop
 endfacet
 facet normal -6.631227e-01 -7.485107e-01  0.000000e+00
   outer loop
     vertex  1.735626e+01  4.016060e+01  1.500000e+01
     vertex  1.735626e+01  4.016060e+01  2.000000e+01
     vertex  1.674795e+01  4.069951e+01  2.000000e+01
   endloop
 endfacet
 facet normal -6.631227e-01 -7.485107e-01  2.376646e-18
   outer loop
     vertex  1.735626e+01  4.016060e+01  1.500000e+01
     vertex  1.674795e+01  4.069951e+01  2.000000e+01
     vertex  1.674795e+01  4.069951e+01  1.500000e+01
   endloop
 endfacet
 facet normal -8.229839e-01 -5.680647e-01  0.000000e+00
   outer loop
     vertex  1.781792e+01  3.949177e+01  1.500000e+01
     vertex  1.781792e+01  3.949177e+01  2.000000e+01
     vertex  1.735626e+01  4.016060e+01  2.000000e+01
   endloop
 endfacet
 facet normal -9.350162e-01 -3.546049e-01  0.000000e+00
   outer loop
     vertex  1.781792e+01  3.949177e+01  1.500000e+01
     vertex  1.810610e+01  3.873189e+01  2.000000e+01
     vertex  1.781792e+01  3.949177e+01  2.000000e+01
   endloop
 endfacet
 facet normal -8.229839e-01 -5.680647e-01  3.029778e-18
   outer loop
     vertex  1.781792e+01  3.949177e+01  1.500000e+01
     vertex  1.735626e+01  4.016060e+01  2.000000e+01
     vertex  1.735626e+01  4.016060e+01  1.500000e+01
   endloop
 endfacet
 facet normal -9.350162e-01 -3.546049e-01  0.000000e+00
   outer loop
     vertex  1.810610e+01  3.873189e+01  1.500000e+01
     vertex  1.810610e+01  3.873189e+01  2.000000e+01
     vertex  1.781792e+01  3.949177e+01  1.500000e+01
   endloop
 endfacet
 facet normal -9.927089e-01 -1.205367e-01  0.000000e+00
   outer loop
     vertex  1.820406e+01  3.792513e+01  1.500000e+01
     vertex  1.820406e+01  3.792513e+01  2.000000e+01
     vertex  1.810610e+01  3.873189e+01  2.000000e+01
   endloop
 endfacet
 facet normal -9.927089e-01 -1.205367e-01  5.468898e-19
   outer loop
     vertex  1.820406e+01  3.792513e+01  1.500000e+01
     vertex  1.810610e+01  3.873189e+01  2.000000e+01
     vertex  1.810610e+01  3.873189e+01  1.500000e+01
   endloop
 endfacet
 facet normal  0.000000e+00  0.000000e+00  1.000000e+00
   outer loop
     vertex  1.820406e+01  3.792513e+01  1.500000e+01
     vertex  1.602836e+01  4.107718e+01  1.500000e+01
     vertex  1.523928e+01  4.127167e+01  1.500000e+01
   endloop
 endfacet
 facet normal  0.000000e+00  0.000000e+00  1.000000e+00
   outer loop
     vertex  1.820406e+01  3.792513e+01  1.500000e+01
     vertex  1.674795e+01  4.069951e+01  1.500000e+01
     vertex  1.602836e+01  4.107718e+01  1.500000e+01
   endloop
 endfacet
 facet normal  0.000000e+00  0.000000e+00  1.000000e+00
   outer loop
     vertex  1.820406e+01  3.792513e+01  1.500000e+01
     vertex  1.735626e+01  4.016060e+01  1.500000e+01
     vertex  1.674795e+01  4.069951e+01  1.500000e+01
   endloop
 endfacet
 facet normal  0.000000e+00  0.000000e+00  1.000000e+00
   outer loop
     vertex  1.820406e+01  3.792513e+01  1.500000e+01
     vertex  1.781792e+01  3.949177e+01  1.500000e+01
     vertex  1.735626e+01  4.016060e+01  1.500000e+01
   endloop
 endfacet
 facet normal  0.000000e+00  0.000000e+00  1.000000e+00
   outer loop
     vertex  1.820406e+01  3.792513e+01  1.500000e+01
     vertex  1.810610e+01  3.873189e+01  1.500000e+01
     vertex  1.781792e+01  3.949177e+01  1.500000e+01
   endloop
 endfacet
 facet normal  0.000000e+00  0.000000e+00  1.000000e+00
   outer loop
     vertex  1.363752e+01  4.107718e+01  1.500000e+01
     vertex  1.523928e+01  4.127167e+01  1.500000e+01
     vertex  1.442660e+01  4.127167e+01  1.500000e+01
   endloop
 endfacet
 facet normal -0.000000e+00  0.000000e+00  1.000000e+00
   outer loop
     vertex  1.363752e+01  4.107718e+01  1.500000e+01
     vertex  1.820406e+01  3.792513e+01  1.500000e+01
     vertex  1.523928e+01  4.127167e+01  1.500000e+01
   endloop
 endfacet
 facet normal  0.000000e+00  0.000000e+00  1.000000e+00
   outer loop
     vertex  1.230962e+01  4.016060e+01  1.500000e+01
     vertex  1.363752e+01  4.107718e+01  1.500000e+01
     vertex  1.291792e+01  4.069951e+01  1.500000e+01
   endloop
 endfacet
 facet normal -0.000000e+00  0.000000e+00  1.000000e+00
   outer loop
     vertex  1.230962e+01  4.016060e+01  1.500000e+01
     vertex  1.820406e+01  3.792513e+01  1.500000e+01
     vertex  1.363752e+01  4.107718e+01  1.500000e+01
   endloop
 endfacet
 facet normal  0.000000e+00  0.000000e+00  1.000000e+00
   outer loop
     vertex  1.155978e+01  3.873189e+01  1.500000e+01
     vertex  1.230962e+01  4.016060e+01  1.500000e+01
     vertex  1.184796e+01  3.949177e+01  1.500000e+01
   endloop
 endfacet
 facet normal -0.000000e+00  0.000000e+00  1.000000e+00
   outer loop
     vertex  1.155978e+01  3.873189e+01  1.500000e+01
     vertex  1.820406e+01  3.792513e+01  1.500000e+01
     vertex  1.230962e+01  4.016060e+01  1.500000e+01
   endloop
 endfacet
 facet normal  0.000000e+00  0.000000e+00  1.000000e+00
   outer loop
     vertex  1.146182e+01  3.792513e+01  1.500000e+01
     vertex  1.820406e+01  3.792513e+01  1.500000e+01
     vertex  1.155978e+01  3.873189e+01  1.500000e+01
   endloop
 endfacet
 facet normal  0.000000e+00  0.000000e+00  1.000000e+00
   outer loop
     vertex  1.735626e+01  2.113565e+01  1.500000e+01
     vertex  1.781792e+01  2.180448e+01  1.500000e+01
     vertex  1.810610e+01  2.256436e+01  1.500000e+01
   endloop
 endfacet
 facet normal  0.000000e+00  0.000000e+00  1.000000e+00
   outer loop
     vertex  1.674795e+01  2.059674e+01  1.500000e+01
     vertex  1.810610e+01  2.256436e+01  1.500000e+01
     vertex  1.820406e+01  2.337112e+01  1.500000e+01
   endloop
 endfacet
 facet normal  0.000000e+00  0.000000e+00  1.000000e+00
   outer loop
     vertex  1.674795e+01  2.059674e+01  1.500000e+01
     vertex  1.735626e+01  2.113565e+01  1.500000e+01
     vertex  1.810610e+01  2.256436e+01  1.500000e+01
   endloop
 endfacet
 facet normal  0.000000e+00  0.000000e+00  1.000000e+00
   outer loop
     vertex  1.602836e+01  2.021907e+01  1.500000e+01
     vertex  1.674795e+01  2.059674e+01  1.500000e+01
     vertex  1.820406e+01  2.337112e+01  1.500000e+01
   endloop
 endfacet
 facet normal  0.000000e+00  0.000000e+00  1.000000e+00
   outer loop
     vertex  1.146182e+01  2.337112e+01  1.500000e+01
     vertex  1.820406e+01  2.337112e+01  1.500000e+01
     vertex  1.820406e+01  3.792513e+01  1.500000e+01
   endloop
 endfacet
 facet normal  0.000000e+00  0.000000e+00  1.000000e+00
   outer loop
     vertex  1.146182e+01  2.337112e+01  1.500000e+01
     vertex  1.820406e+01  3.792513e+01  1.500000e+01
     vertex  1.146182e+01  3.792513e+01  1.500000e+01
   endloop
 endfacet
 facet normal  0.000000e+00 -0.000000e+00  1.000000e+00
   outer loop
     vertex  1.155978e+01  2.256436e+01  1.500000e+01
     vertex  1.820406e+01  2.337112e+01  1.500000e+01
     vertex  1.146182e+01  2.337112e+01  1.500000e+01
   endloop
 endfacet
 facet normal -0.000000e+00  0.000000e+00  1.000000e+00
   outer loop
     vertex  1.363752e+01  2.021907e+01  1.500000e+01
     vertex  1.523928e+01  2.002458e+01  1.500000e+01
     vertex  1.602836e+01  2.021907e+01  1.500000e+01
   endloop
 endfacet
 facet normal  0.000000e+00  0.000000e+00  1.000000e+00
   outer loop
     vertex  1.363752e+01  2.021907e+01  1.500000e+01
     vertex  1.442660e+01  2.002458e+01  1.500000e+01
     vertex  1.523928e+01  2.002458e+01  1.500000e+01
   endloop
 endfacet
 facet normal  0.000000e+00  0.000000e+00  1.000000e+00
   outer loop
     vertex  1.230962e+01  2.113565e+01  1.500000e+01
     vertex  1.291792e+01  2.059674e+01  1.500000e+01
     vertex  1.363752e+01  2.021907e+01  1.500000e+01
   endloop
 endfacet
 facet normal  0.000000e+00  0.000000e+00  1.000000e+00
   outer loop
     vertex  1.230962e+01  2.113565e+01  1.500000e+01
     vertex  1.155978e+01  2.256436e+01  1.500000e+01
     vertex  1.184796e+01  2.180448e+01  1.500000e+01
   endloop
 endfacet
 facet normal -0.000000e+00  0.000000e+00  1.000000e+00
   outer loop
     vertex  1.230962e+01  2.113565e+01  1.500000e+01
     vertex  1.602836e+01  2.021907e+01  1.500000e+01
     vertex  1.820406e+01  2.337112e+01  1.500000e+01
   endloop
 endfacet
 facet normal  0.000000e+00 -0.000000e+00  1.000000e+00
   outer loop
     vertex  1.230962e+01  2.113565e+01  1.500000e+01
     vertex  1.820406e+01  2.337112e+01  1.500000e+01
     vertex  1.155978e+01  2.256436e+01  1.500000e+01
   endloop
 endfacet
 facet normal  0.000000e+00  0.000000e+00  1.000000e+00
   outer loop
     vertex  1.230962e+01  2.113565e+01  1.500000e+01
     vertex  1.363752e+01  2.021907e+01  1.500000e+01
     vertex  1.602836e+01  2.021907e+01  1.500000e+01
   endloop
 endfacet
 facet normal  0.000000e+00  1.000000e+00  0.000000e+00
   outer loop
     vertex  0.000000e+00  5.000000e+01  0.000000e+00
     vertex  5.000000e+01  5.000000e+01  2.000000e+01
     vertex  5.000000e+01  5.000000e+01  0.000000e+00
   endloop
 endfacet
 facet normal -0.000000e+00  1.000000e+00  0.000000e+00
   outer loop
     vertex  0.000000e+00  5.000000e+01  2.000000e+01
     vertex  5.000000e+01  5.000000e+01  2.000000e+01
     vertex  0.000000e+00  5.000000e+01  0.000000e+00
   endloop
 endfacet
 facet normal  1.000000e+00  0.000000e+00  0.000000e+00
   outer loop
     vertex  5.000000e+01  5.000000e+01  0.000000e+00
     vertex  5.000000e+01  0.000000e+00  2.000000e+01
     vertex  5.000000e+01  0.000000e+00  0.000000e+00
   endloop
 endfacet
 facet normal  1.000000e+00  0.000000e+00  0.000000e+00
   outer loop
     vertex  5.000000e+01  5.000000e+01  2.000000e+01
     vertex  5.000000e+01  0.000000e+00  2.000000e+01
     vertex  5.000000e+01  5.000000e+01  0.000000e+00
   endloop
 endfacet
 facet normal  0.000000e+00 -1.000000e+00  0.000000e+00
   outer loop
     vertex  5.000000e+01  0.000000e+00  0.000000e+00
     vertex  0.000000e+00  0.000000e+00  2.000000e+01
     vertex  0.000000e+00  0.000000e+00  0.000000e+00
   endloop
 endfacet
 facet normal -0.000000e+00 -1.000000e+00 -0.000000e+00
   outer loop
     vertex  5.000000e+01  0.000000e+00  2.000000e+01
     vertex  0.000000e+00  0.000000e+00  2.000000e+01
     vertex  5.000000e+01  0.000000e+00  0.000000e+00
   endloop
 endfacet
 facet normal -1.000000e+00  0.000000e+00  0.000000e+00
   outer loop
     vertex  0.000000e+00  0.000000e+00  0.000000e+00
     vertex  0.000000e+00  5.000000e+01  2.000000e+01
     vertex  0.000000e+00  5.000000e+01  0.000000e+00
   endloop
 endfacet
 facet normal -1.000000e+00  0.000000e+00  0.000000e+00
   outer loop
     vertex  0.000000e+00  0.000000e+00  2.000000e+01
     vertex  0.000000e+00  5.000000e+01  2.000000e+01
     vertex  0.000000e+00  0.000000e+00  0.000000e+00
   endloop
 endfacet
 facet normal  0.000000e+00  0.000000e+00  1.000000e+00
   outer loop
     vertex  1.291792e+01  2.059674e+01  2.000000e+01
     vertex  1.230962e+01  2.113565e+01  2.000000e+01
     vertex  0.000000e+00  0.000000e+00  2.000000e+01
   endloop
 endfacet
 facet normal  0.000000e+00  0.000000e+00  1.000000e+00
   outer loop
     vertex  1.184796e+01  2.180448e+01  2.000000e+01
     vertex  0.000000e+00  0.000000e+00  2.000000e+01
     vertex  1.230962e+01  2.113565e+01  2.000000e+01
   endloop
 endfacet
 facet normal  0.000000e+00  0.000000e+00  1.000000e+00
   outer loop
     vertex  1.363752e+01  2.021907e+01  2.000000e+01
     vertex  1.291792e+01  2.059674e+01  2.000000e+01
     vertex  0.000000e+00  0.000000e+00  2.000000e+01
   endloop
 endfacet
 facet normal  0.000000e+00  0.000000e+00  1.000000e+00
   outer loop
     vertex  1.155978e+01  2.256436e+01  2.000000e+01
     vertex  0.000000e+00  0.000000e+00  2.000000e+01
     vertex  1.184796e+01  2.180448e+01  2.000000e+01
   endloop
 endfacet
 facet normal  0.000000e+00  0.000000e+00  1.000000e+00
   outer loop
     vertex  1.442660e+01  2.002458e+01  2.000000e+01
     vertex  1.363752e+01  2.021907e+01  2.000000e+01
     vertex  0.000000e+00  0.000000e+00  2.000000e+01
   endloop
 endfacet
 facet normal  0.000000e+00  0.000000e+00  1.000000e+00
   outer loop
     vertex  1.146182e+01  2.337112e+01  2.000000e+01
     vertex  0.000000e+00  0.000000e+00  2.000000e+01
     vertex  1.155978e+01  2.256436e+01  2.000000e+01
   endloop
 endfacet
 facet normal  0.000000e+00  0.000000e+00  1.000000e+00
   outer loop
     vertex  1.523928e+01  2.002458e+01  2.000000e+01
     vertex  1.442660e+01  2.002458e+01  2.000000e+01
     vertex  0.000000e+00  0.000000e+00  2.000000e+01
   endloop
 endfacet
 facet normal  0.000000e+00  0.000000e+00  1.000000e+00
   outer loop
     vertex  1.602836e+01  2.021907e+01  2.000000e+01
     vertex  1.523928e+01  2.002458e+01  2.000000e+01
     vertex  0.000000e+00  0.000000e+00  2.000000e+01
   endloop
 endfacet
 facet normal  0.000000e+00  0.000000e+00  1.000000e+00
   outer loop
     vertex  5.000000e+01  0.000000e+00  2.000000e+01
     vertex  1.820406e+01  2.337112e+01  2.000000e+01
     vertex  1.810610e+01  2.256436e+01  2.000000e+01
   endloop
 endfacet
 facet normal  0.000000e+00  0.000000e+00  1.000000e+00
   outer loop
     vertex  5.000000e+01  0.000000e+00  2.000000e+01
     vertex  1.810610e+01  2.256436e+01  2.000000e+01
     vertex  1.781792e+01  2.180448e+01  2.000000e+01
   endloop
 endfacet
 facet normal  0.000000e+00  0.000000e+00  1.000000e+00
   outer loop
     vertex  5.000000e+01  0.000000e+00  2.000000e+01
     vertex  1.781792e+01  2.180448e+01  2.000000e+01
     vertex  1.735626e+01  2.113565e+01  2.000000e+01
   endloop
 endfacet
 facet normal  0.000000e+00  0.000000e+00  1.000000e+00
   outer loop
     vertex  5.000000e+01  0.000000e+00  2.000000e+01
     vertex  1.735626e+01  2.113565e+01  2.000000e+01
     vertex  1.674795e+01  2.059674e+01  2.000000e+01
   endloop
 endfacet
 facet normal  0.000000e+00  0.000000e+00  1.000000e+00
   outer loop
     vertex  5.000000e+01  0.000000e+00  2.000000e+01
     vertex  1.674795e+01  2.059674e+01  2.000000e+01
     vertex  1.602836e+01  2.021907e+01  2.000000e+01
   endloop
 endfacet
 facet normal  0.000000e+00  0.000000e+00  1.000000e+00
   outer loop
     vertex  5.000000e+01  0.000000e+00  2.000000e+01
     vertex  1.602836e+01  2.021907e+01  2.000000e+01
     vertex  0.000000e+00  0.000000e+00  2.000000e+01
   endloop
 endfacet
 facet normal  0.000000e+00  0.000000e+00  1.000000e+00
   outer loop
     vertex  0.000000e+00  5.000000e+01  2.000000e+01
     vertex  1.146182e+01  2.337112e+01  2.000000e+01
     vertex  1.146182e+01  3.792513e+01  2.000000e+01
   endloop
 endfacet
 facet normal  0.000000e+00  0.000000e+00  1.000000e+00
   outer loop
     vertex  0.000000e+00  5.000000e+01  2.000000e+01
     vertex  0.000000e+00  0.000000e+00  2.000000e+01
     vertex  1.146182e+01  2.337112e+01  2.000000e+01
   endloop
 endfacet
 facet normal  0.000000e+00  0.000000e+00  1.000000e+00
   outer loop
     vertex  1.155978e+01  3.873189e+01  2.000000e+01
     vertex  0.000000e+00  5.000000e+01  2.000000e+01
     vertex  1.146182e+01  3.792513e+01  2.000000e+01
   endloop
 endfacet
 facet normal  0.000000e+00  0.000000e+00  1.000000e+00
   outer loop
     vertex  1.184796e+01  3.949177e+01  2.000000e+01
     vertex  0.000000e+00  5.000000e+01  2.000000e+01
     vertex  1.155978e+01  3.873189e+01  2.000000e+01
   endloop
 endfacet
 facet normal  0.000000e+00  0.000000e+00  1.000000e+00
   outer loop
     vertex  1.230962e+01  4.016060e+01  2.000000e+01
     vertex  0.000000e+00  5.000000e+01  2.000000e+01
     vertex  1.184796e+01  3.949177e+01  2.000000e+01
   endloop
 endfacet
 facet normal  0.000000e+00  0.000000e+00  1.000000e+00
   outer loop
     vertex  1.291792e+01  4.069951e+01  2.000000e+01
     vertex  0.000000e+00  5.000000e+01  2.000000e+01
     vertex  1.230962e+01  4.016060e+01  2.000000e+01
   endloop
 endfacet
 facet normal  0.000000e+00  0.000000e+00  1.000000e+00
   outer loop
     vertex  1.363752e+01  4.107718e+01  2.000000e+01
     vertex  0.000000e+00  5.000000e+01  2.000000e+01
     vertex  1.291792e+01  4.069951e+01  2.000000e+01
   endloop
 endfacet
 facet normal  0.000000e+00  0.000000e+00  1.000000e+00
   outer loop
     vertex  1.442660e+01  4.127167e+01  2.000000e+01
     vertex  0.000000e+00  5.000000e+01  2.000000e+01
     vertex  1.363752e+01  4.107718e+01  2.000000e+01
   endloop
 endfacet
 facet normal  0.000000e+00  0.000000e+00  1.000000e+00
   outer loop
     vertex  1.523928e+01  4.127167e+01  2.000000e+01
     vertex  0.000000e+00  5.000000e+01  2.000000e+01
     vertex  1.442660e+01  4.127167e+01  2.000000e+01
   endloop
 endfacet
 facet normal  0.000000e+00  0.000000e+00  1.000000e+00
   outer loop
     vertex  5.000000e+01  5.000000e+01  2.000000e+01
     vertex  1.602836e+01  4.107718e+01  2.000000e+01
     vertex  1.674795e+01  4.069951e+01  2.000000e+01
   endloop
 endfacet
 facet normal  0.000000e+00  0.000000e+00  1.000000e+00
   outer loop
     vertex  5.000000e+01  5.000000e+01  2.000000e+01
     vertex  1.674795e+01  4.069951e+01  2.000000e+01
     vertex  1.735626e+01  4.016060e+01  2.000000e+01
   endloop
 endfacet
 facet normal  0.000000e+00  0.000000e+00  1.000000e+00
   outer loop
     vertex  5.000000e+01  5.000000e+01  2.000000e+01
     vertex  1.735626e+01  4.016060e+01  2.000000e+01
     vertex  1.781792e+01  3.949177e+01  2.000000e+01
   endloop
 endfacet
 facet normal  0.000000e+00  0.000000e+00  1.000000e+00
   outer loop
     vertex  5.000000e+01  5.000000e+01  2.000000e+01
     vertex  1.781792e+01  3.949177e+01  2.000000e+01
     vertex  1.810610e+01  3.873189e+01  2.000000e+01
   endloop
 endfacet
 facet normal  0.000000e+00  0.000000e+00  1.000000e+00
   outer loop
     vertex  5.000000e+01  5.000000e+01  2.000000e+01
     vertex  1.810610e+01  3.873189e+01  2.000000e+01
     vertex  1.820406e+01  3.792513e+01  2.000000e+01
   endloop
 endfacet
 facet normal  0.000000e+00  0.000000e+00  1.000000e+00
   outer loop
     vertex  5.000000e+01  5.000000e+01  2.000000e+01
     vertex  1.820406e+01  3.792513e+01  2.000000e+01
     vertex  1.820406e+01  2.337112e+01  2.000000e+01
   endloop
 endfacet
 facet normal  0.000000e+00  0.000000e+00  1.000000e+00
   outer loop
     vertex  5.000000e+01  5.000000e+01  2.000000e+01
     vertex  1.820406e+01  2.337112e+01  2.000000e+01
     vertex  5.000000e+01  0.000000e+00  2.000000e+01
   endloop
 endfacet
 facet normal  0.000000e+00  0.000000e+00  1.000000e+00
   outer loop
     vertex  5.000000e+01  5.000000e+01  2.000000e+01
     vertex  0.000000e+00  5.000000e+01  2.000000e+01
     vertex  1.523928e+01  4.127167e+01  2.000000e+01
   endloop
 endfacet
 facet normal  0.000000e+00  0.000000e+00  1.000000e+00
   outer loop
     vertex  5.000000e+01  5.000000e+01  2.000000e+01
     vertex  1.523928e+01  4.127167e+01  2.000000e+01
     vertex  1.602836e+01  4.107718e+01  2.000000e+01
   endloop
 endfacet
 facet normal  0.000000e+00 -0.000000e+00 -1.000000e+00
   outer loop
     vertex  5.000000e+01  5.000000e+01  0.000000e+00
     vertex  5.000000e+01  0.000000e+00  0.000000e+00
     vertex  0.000000e+00  0.000000e+00  0.000000e+00
   endloop
 endfacet
 facet normal -0.000000e+00  0.000000e+00 -1.000000e+00
   outer loop
     vertex  5.000000e+01  5.000000e+01  0.000000e+00
     vertex  0.000000e+00  0.000000e+00  0.000000e+00
     vertex  0.000000e+00  5.000000e+01  0.000000e+00
   endloop
 endfacet
endsolid
